# xmcd
#
# Track frame offsets:
#	150
#	15601
#	38036
#	56112
#	72613
#	90869
#	110514
#	124294
#	144149
#	158105
#	168611
#	185153
#	201413
#	216143
#	232158
#	247650
#
# Disc length: 3545 seconds
#
# Revision: 1
# Processed by: cddbd v1.5.2PL0 Copyright (c) Steve Scherf et al.
# Submitted via: audiograbber 1.83.01
#
DISCID=e60dd710
DTITLE=Kip Moore - Wild Ones (Deluxe Edition)
DYEAR=2015
DGENRE=Country
TTITLE0=Wild Ones
TTITLE1=Come and Get It
TTITLE2=Girl of the Summer
TTITLE3=Magic
TTITLE4=That Was Us
TTITLE5=Lipstick
TTITLE6=What Ya Got On Tonight
TTITLE7=Heart's Desire
TTITLE8=Complicated
TTITLE9=I'm To Blame
TTITLE10=That's Alright With Me
TTITLE11=Running For You
TTITLE12=Comeback Kid
TTITLE13=What I Do
TTITLE14=Backseat
TTITLE15=Burn the Whole World Down
EXTD=
EXTT0=
EXTT1=
EXTT2=
EXTT3=
EXTT4=
EXTT5=
EXTT6=
EXTT7=
EXTT8=
EXTT9=
EXTT10=
EXTT11=
EXTT12=
EXTT13=
EXTT14=
EXTT15=
PLAYORDER=
